<svg xmlns="http://www.w3.org/2000/svg" width="14" height="14" viewBox="0 0 14 14">
    <path fill="#FFF" fill-rule="evenodd" d="M7 11.776a4.55 4.55 0 0 0 2.352-.644c.71-.41 1.27-.97 1.68-1.68a4.55 4.55 0 0 0 .378-3.864 4.924 4.924 0 0 0-.742-1.358L4.13 10.768c.42.317.875.565 1.365.742.49.177.992.266 1.505.266zM2.324 7.1c0 .513.089 1.015.266 1.505.177.49.425.945.742 1.365L9.87 3.432a4.924 4.924 0 0 0-1.358-.742 4.55 4.55 0 0 0-3.864.378c-.71.41-1.27.97-1.68 1.68A4.55 4.55 0 0 0 2.324 7.1zM7 1.276c1.055 0 2.035.266 2.94.798a5.732 5.732 0 0 1 2.086 2.086c.532.905.798 1.885.798 2.94a5.702 5.702 0 0 1-.798 2.94 5.732 5.732 0 0 1-2.086 2.086 5.702 5.702 0 0 1-2.94.798 5.702 5.702 0 0 1-2.94-.798 5.842 5.842 0 0 1-2.086-2.1A5.677 5.677 0 0 1 1.176 7.1c0-1.045.266-2.02.798-2.926a5.956 5.956 0 0 1 2.1-2.1A5.677 5.677 0 0 1 7 1.276z"/>
</svg>
