<svg xmlns="http://www.w3.org/2000/svg" width="50" height="50" viewBox="0 0 50 50">
    <path fill="#67809E" fill-rule="evenodd" d="M20.072 37.261l22-22-3.461-3.578L20.072 30.28l-8.683-8.741L7.928 25l12.144 12.261zM42.072 3c1.369 0 2.532.489 3.49 1.467C46.522 5.444 47 6.598 47 7.928v34.144c0 1.33-.48 2.484-1.437 3.461-.959.978-2.122 1.467-3.491 1.467H7.928c-1.369 0-2.532-.489-3.49-1.467C3.478 44.556 3 43.402 3 42.072V7.928c0-1.33.48-2.484 1.437-3.461C5.396 3.489 6.56 3 7.928 3h34.144z"/>
</svg>
