<svg xmlns="http://www.w3.org/2000/svg" width="50" height="50" viewBox="0 0 50 50">
    <path fill="#ffffff" fill-rule="evenodd" d="M28.667 14.917V27.75a.892.892 0 0 1-.258.659.892.892 0 0 1-.659.258h-9.167a.892.892 0 0 1-.659-.258.892.892 0 0 1-.257-.659v-1.833c0-.268.086-.487.257-.66a.892.892 0 0 1 .66-.257H25V14.917c0-.268.086-.487.258-.66a.892.892 0 0 1 .659-.257h1.833c.267 0 .487.086.659.258a.892.892 0 0 1 .258.659zm9.825 17.903c1.394-2.387 2.091-4.994 2.091-7.82 0-2.826-.697-5.433-2.09-7.82a15.534 15.534 0 0 0-5.673-5.672c-2.387-1.394-4.994-2.091-7.82-2.091-2.826 0-5.433.697-7.82 2.09a15.534 15.534 0 0 0-5.672 5.673c-1.394 2.387-2.091 4.994-2.091 7.82 0 2.826.697 5.433 2.09 7.82a15.534 15.534 0 0 0 5.673 5.672c2.387 1.394 4.994 2.091 7.82 2.091 2.826 0 5.433-.697 7.82-2.09a15.534 15.534 0 0 0 5.672-5.673zm5.557-18.849C46.017 17.332 47 21.01 47 25c0 3.991-.983 7.672-2.95 11.043a21.901 21.901 0 0 1-8.007 8.006C32.673 46.017 28.991 47 25 47c-3.991 0-7.672-.983-11.043-2.95a21.901 21.901 0 0 1-8.006-8.007C3.983 32.673 3 28.991 3 25c0-3.991.983-7.672 2.95-11.043a21.901 21.901 0 0 1 8.007-8.006C17.327 3.983 21.009 3 25 3c3.991 0 7.672.983 11.043 2.95 3.37 1.968 6.04 4.641 8.006 8.021z"/>
</svg>
