<svg xmlns="http://www.w3.org/2000/svg" width="14" height="15" viewBox="0 0 14 15">
    <path fill="#FFF" fill-rule="evenodd" d="M8 4.143v4a.278.278 0 0 1-.08.205.278.278 0 0 1-.206.08H4.857a.278.278 0 0 1-.205-.08.278.278 0 0 1-.08-.205V7.57c0-.083.026-.151.08-.205a.278.278 0 0 1 .205-.08h2V4.143c0-.083.027-.152.08-.205a.278.278 0 0 1 .206-.08h.571c.084 0 .152.026.206.08.053.053.08.122.08.205zm3.063 5.58a4.748 4.748 0 0 0 .651-2.437c0-.881-.217-1.694-.652-2.438A4.842 4.842 0 0 0 9.296 3.08a4.748 4.748 0 0 0-2.438-.651c-.88 0-1.693.217-2.437.651a4.842 4.842 0 0 0-1.768 1.768A4.748 4.748 0 0 0 2 7.286c0 .88.217 1.693.652 2.437a4.842 4.842 0 0 0 1.768 1.768 4.748 4.748 0 0 0 2.437.652c.881 0 1.694-.217 2.438-.652a4.842 4.842 0 0 0 1.768-1.768zm1.732-5.875a6.684 6.684 0 0 1 .92 3.438 6.708 6.708 0 0 1-.92 3.442 6.826 6.826 0 0 1-2.496 2.495 6.708 6.708 0 0 1-3.442.92 6.708 6.708 0 0 1-3.442-.92A6.826 6.826 0 0 1 .92 10.728 6.708 6.708 0 0 1 0 7.286c0-1.244.307-2.392.92-3.442a6.826 6.826 0 0 1 2.495-2.496 6.708 6.708 0 0 1 3.442-.92c1.244 0 2.392.307 3.442.92a6.816 6.816 0 0 1 2.496 2.5z"/>
</svg>
