<svg xmlns="http://www.w3.org/2000/svg" width="50" height="50" viewBox="0 0 50 50">
    <g fill="none" fill-rule="nonzero">
        <path stroke="#67809E" stroke-width="4" d="M46.272 17.535C39.869 13.173 32.828 11 25.095 11c-7.73 0-14.754 2.16-21.122 6.496l10.829 20.452c2.808-1.766 6.252-2.634 10.293-2.634 4.048 0 7.501.875 10.323 2.654l10.854-20.433zm-42.299-.039z"/>
        <path fill="#67809E" d="M15.182 29.432c-.026 1.675.495 3.516 1.528 5.53 1.581 3.084 1.581 5.592.1 7.744a1.5 1.5 0 0 0 2.47 1.701c2.154-3.129 2.154-6.806.1-10.813-.839-1.635-1.226-3.026-1.197-4.162h1.225a1 1 0 0 0 .854-1.52l-2.704-4.433a1 1 0 0 0-1.707 0l-2.705 4.432A1 1 0 0 0 14 29.432h1.182zM23.182 29.432c-.026 1.675.495 3.516 1.528 5.53 1.581 3.084 1.581 5.592.1 7.744a1.5 1.5 0 0 0 2.47 1.701c2.154-3.129 2.154-6.806.1-10.813-.839-1.635-1.226-3.026-1.197-4.162h1.225a1 1 0 0 0 .854-1.52l-2.704-4.433a1 1 0 0 0-1.707 0l-2.705 4.432A1 1 0 0 0 22 29.432h1.182zM31.182 29.432c-.026 1.675.495 3.516 1.528 5.53 1.581 3.084 1.581 5.592.1 7.744a1.5 1.5 0 0 0 2.47 1.701c2.154-3.129 2.154-6.806.1-10.813-.839-1.635-1.226-3.026-1.197-4.162h1.225a1 1 0 0 0 .854-1.52l-2.704-4.433a1 1 0 0 0-1.707 0l-2.705 4.432A1 1 0 0 0 30 29.432h1.182z"/>
    </g>
</svg>
