<svg xmlns="http://www.w3.org/2000/svg" width="50" height="50" viewBox="0 0 50 50">
    <path fill="#67809E" fill-rule="evenodd" d="M22.187 29.833l-7.404 4.24-1.434 5.284c-.407 1.503-1.966 2.395-3.481 1.994a2.807 2.807 0 0 1-2.006-3.446l.992-3.659-3.69-.977a2.807 2.807 0 0 1-2.006-3.446c.407-1.502 1.966-2.395 3.481-1.994l5.266 1.394L19.279 25l-7.61-4.358-4.947 1.59c-1.492.478-3.095-.332-3.581-1.811a2.805 2.805 0 0 1 1.82-3.546L8.71 15.67l-.823-3.822a2.81 2.81 0 0 1 2.185-3.337c1.535-.322 3.044.65 3.372 2.172l1.1 5.106 7.643 4.377v-8.48L18.29 7.813a2.807 2.807 0 0 1 0-3.987 2.849 2.849 0 0 1 4.012 0L25 6.508l2.698-2.682a2.849 2.849 0 0 1 4.012 0 2.807 2.807 0 0 1 0 3.987l-3.85 3.826v8.447l7.61-4.358 1.086-5.044c.328-1.522 1.837-2.494 3.372-2.172a2.81 2.81 0 0 1 2.185 3.337l-.823 3.822 3.748 1.204a2.805 2.805 0 0 1 1.821 3.546c-.486 1.479-2.09 2.29-3.581 1.81l-5.008-1.608L30.626 25l7.404 4.24 5.33-1.41c1.516-.402 3.075.491 3.482 1.993a2.807 2.807 0 0 1-2.006 3.446l-3.69.977.992 3.659a2.807 2.807 0 0 1-2.006 3.446c-1.515.401-3.074-.491-3.481-1.994l-1.416-5.22-7.375-4.223v8.716l3.862 3.455a2.808 2.808 0 0 1 .21 3.982 2.849 2.849 0 0 1-4.007.209L25 43.658l-2.925 2.618a2.849 2.849 0 0 1-4.007-.209 2.808 2.808 0 0 1 .21-3.982l3.909-3.498v-8.754z"/>
</svg>
