<svg xmlns="http://www.w3.org/2000/svg" width="50" height="50" viewBox="0 0 50 50">
    <path fill="#67809E" fill-rule="evenodd" d="M10.429 30.25v2.357c0 .262-.131.393-.393.393H7.679c-.262 0-.393-.131-.393-.393V30.25c0-.262.13-.393.393-.393h2.357c.262 0 .393.131.393.393zm3.142-6.286v2.357c0 .262-.13.393-.392.393h-5.5c-.262 0-.393-.13-.393-.393v-2.357c0-.262.13-.393.393-.393h5.5c.261 0 .392.131.392.393zM10.43 17.68v2.357c0 .262-.131.393-.393.393H7.679c-.262 0-.393-.131-.393-.393v-2.357c0-.262.13-.393.393-.393h2.357c.262 0 .393.13.393.393zM35.57 30.25v2.357c0 .262-.13.393-.392.393H13.964c-.262 0-.393-.131-.393-.393V30.25c0-.262.131-.393.393-.393H35.18c.261 0 .392.131.392.393zm-15.714-6.286v2.357c0 .262-.13.393-.393.393h-2.357c-.262 0-.393-.13-.393-.393v-2.357c0-.262.131-.393.393-.393h2.357c.262 0 .393.131.393.393zm-3.143-6.285v2.357c0 .262-.13.393-.393.393h-2.357c-.262 0-.393-.131-.393-.393v-2.357c0-.262.131-.393.393-.393h2.357c.262 0 .393.13.393.393zm9.429 6.285v2.357c0 .262-.131.393-.393.393h-2.357c-.262 0-.393-.13-.393-.393v-2.357c0-.262.131-.393.393-.393h2.357c.262 0 .393.131.393.393zM23 17.68v2.357c0 .262-.131.393-.393.393H20.25c-.262 0-.393-.131-.393-.393v-2.357c0-.262.131-.393.393-.393h2.357c.262 0 .393.13.393.393zm9.429 6.285v2.357c0 .262-.131.393-.393.393h-2.357c-.262 0-.393-.13-.393-.393v-2.357c0-.262.13-.393.393-.393h2.357c.262 0 .393.131.393.393zm9.428 6.286v2.357c0 .262-.13.393-.393.393h-2.357c-.262 0-.393-.131-.393-.393V30.25c0-.262.131-.393.393-.393h2.357c.262 0 .393.131.393.393zM29.286 17.679v2.357c0 .262-.131.393-.393.393h-2.357c-.262 0-.393-.131-.393-.393v-2.357c0-.262.13-.393.393-.393h2.357c.262 0 .393.13.393.393zm6.285 0v2.357c0 .262-.13.393-.392.393H32.82c-.261 0-.392-.131-.392-.393v-2.357c0-.262.13-.393.392-.393h2.358c.261 0 .392.13.392.393zm6.286 0v8.642c0 .262-.13.393-.393.393h-5.5c-.262 0-.393-.13-.393-.393v-2.357c0-.262.131-.393.393-.393h2.75V17.68c0-.262.131-.393.393-.393h2.357c.262 0 .393.13.393.393zM45 36.143v-22H4.143v22H45zm3.143-22v22c0 .867-.307 1.608-.92 2.222a3.028 3.028 0 0 1-2.223.92H4.143a3.028 3.028 0 0 1-2.222-.92A3.028 3.028 0 0 1 1 36.143v-22c0-.868.307-1.608.92-2.222A3.028 3.028 0 0 1 4.144 11H45c.868 0 1.608.307 2.222.92.614.615.92 1.355.92 2.223z"/>
</svg>
