<svg xmlns="http://www.w3.org/2000/svg" width="50" height="50" viewBox="0 0 50 50">
    <path fill="#67809E" fill-rule="evenodd" d="M26.484 35.33l1.485 8.741c.066.197.099.459.099.786 0 .917-.314 1.67-.94 2.26A3.141 3.141 0 0 1 24.9 48c-.858 0-1.6-.295-2.227-.884-.626-.59-.94-1.342-.94-2.259 0-.327.033-.556.1-.687l1.484-9.036c.264-.851.791-1.277 1.583-1.277.924 0 1.451.491 1.583 1.473zm12.073 3.83c.462.394.693.934.693 1.621 0 .688-.23 1.293-.693 1.817a2.709 2.709 0 0 1-1.83.688c-.693 0-1.237-.23-1.633-.688a2.928 2.928 0 0 1-.297-.393l-4.85-6.482c-.329-.524-.263-1.015.199-1.473.462-.458.99-.491 1.583-.098l6.334 4.616c.065 0 .148.065.247.196s.181.197.247.197zm4.157-6.678c.857.066 1.286.688 1.286 1.866 0 .393-.198.72-.594.982-.396.262-.791.328-1.187.197l-5.64-1.768c-.397-.262-.562-.557-.496-.884.132-.524.396-.72.792-.59l5.839.197zM13.422 33.76l-5.74 1.768a1.282 1.282 0 0 1-1.138-.148C6.181 35.15 6 34.807 6 34.35c0-1.18.396-1.801 1.188-1.867l5.937-.196c.396-.131.66.065.792.589.066.327-.1.622-.495.884zm4.849.393c.528-.459 1.055-.426 1.583.098.462.458.528.95.198 1.473l-4.849 6.482a2.928 2.928 0 0 0-.297.393c-1.187 1.113-2.342 1.113-3.463 0-1.122-1.113-1.122-2.259 0-3.437.198-.197.363-.328.495-.393l6.333-4.616zM34.5 13.429c0 3.404-1.65 6.22-4.948 8.446-.528.327-1.517.933-2.969 1.817-1.451.884-2.573 1.62-3.364 2.21-.792.59-1.65 1.457-2.573 2.602a10.687 10.687 0 0 0-1.98 3.782l-.593-.295c-.264-.13-.71-.458-1.336-.982a8.039 8.039 0 0 1-1.583-1.768c-.43-.655-.792-1.555-1.089-2.7-.297-1.147-.346-2.374-.148-3.684.198-1.506.956-3.077 2.276-4.714 1.32-1.637 2.688-3.045 4.106-4.223 1.419-1.179 2.623-2.652 3.612-4.42.99-1.768 1.353-3.601 1.089-5.5 1.65 0 3.645.917 5.987 2.75s3.513 4.06 3.513 6.679zM34.5 26c-1.32 4.19-3.958 6.286-7.917 6.286-1.715 0-3.133-.851-4.255-2.554.99-1.178 2.54-2.39 4.651-3.634l1.188-.59c.791-.392 1.352-.72 1.682-.981 2.243-1.506 3.793-3.11 4.651-4.813.66 2.03.66 4.125 0 6.286zm-19.792-9.429c-.66-.392-.923-1.276-.791-2.651.066-.59.626-1.588 1.682-2.996s1.55-2.668 1.484-3.781c1.782-.262 3.167.524 4.157 2.357-.33.72-1.254 1.833-2.771 3.34-.264.261-.66.621-1.188 1.08-.528.458-1.006.9-1.435 1.326a10.57 10.57 0 0 0-1.138 1.325z"/>
</svg>
