<svg xmlns="http://www.w3.org/2000/svg" width="254" height="254" viewBox="0 0 254 254">
    <defs>
        <linearGradient id="a" x1="50%" x2="50%" y1="0%" y2="50%">
            <stop offset="0%" stop-color="#99EEFC"/>
            <stop offset="100%" stop-color="#60D9F7"/>
        </linearGradient>
    </defs>
    <g fill="none" fill-rule="evenodd">
        <path fill="url(#a)" d="M92.406 7.62h69.188c29.482 0 40.173 3.07 50.951 8.834 10.778 5.764 19.237 14.223 25.001 25 5.764 10.78 8.834 21.47 8.834 50.952v69.188c0 29.482-3.07 40.173-8.834 50.951-5.764 10.778-14.223 19.237-25 25.001-10.78 5.764-21.47 8.834-50.952 8.834H92.406c-29.482 0-40.173-3.07-50.951-8.834-10.778-5.764-19.237-14.223-25.001-25-5.764-10.78-8.834-21.47-8.834-50.952V92.406c0-29.482 3.07-40.173 8.834-50.951 5.764-10.778 14.223-19.237 25-25.001 10.78-5.764 21.47-8.834 50.952-8.834z"/>
        <path fill="#FFF" d="M116.159 143.764l-25.863 14.932-5.006 18.608c-1.423 5.29-6.868 8.432-12.16 7.02a9.894 9.894 0 0 1-7.006-12.135l3.466-12.884-12.89-3.44a9.894 9.894 0 0 1-7.007-12.135c1.423-5.29 6.867-8.433 12.16-7.02l18.39 4.907 25.759-14.871-26.579-15.345-17.28 5.595c-5.211 1.688-10.812-1.167-12.51-6.375a9.894 9.894 0 0 1 6.36-12.486l13.092-4.24-2.875-13.457a9.894 9.894 0 0 1 7.633-11.751c5.36-1.134 10.633 2.29 11.777 7.646l3.841 17.981 26.698 15.414V79.864l-13.612-13.639c-3.87-3.877-3.87-10.164 0-14.041a9.894 9.894 0 0 1 14.012 0l9.425 9.444 9.425-9.444a9.894 9.894 0 0 1 14.012 0c3.87 3.877 3.87 10.164 0 14.041l-13.446 13.473v29.743l26.579-15.345 3.794-17.763c1.144-5.357 6.417-8.78 11.777-7.646a9.894 9.894 0 0 1 7.633 11.75l-2.875 13.458 13.092 4.24a9.894 9.894 0 0 1 6.36 12.486c-1.698 5.208-7.299 8.063-12.51 6.375l-17.493-5.664-26.697 15.414 25.862 14.932 18.618-4.968c5.293-1.413 10.737 1.73 12.16 7.02a9.894 9.894 0 0 1-7.006 12.135l-12.891 3.44 3.466 12.884a9.894 9.894 0 0 1-7.006 12.135c-5.292 1.412-10.737-1.73-12.16-7.02l-4.945-18.381-25.758-14.872v30.69l13.486 12.168c4.067 3.67 4.395 9.947.734 14.022a9.894 9.894 0 0 1-13.994.735l-10.217-9.219-10.217 9.219a9.894 9.894 0 0 1-13.994-.735c-3.661-4.075-3.333-10.353.734-14.022l13.652-12.317v-30.828z"/>
    </g>
</svg>
