<svg xmlns="http://www.w3.org/2000/svg" width="50" height="50" viewBox="0 0 50 50">
    <path fill="#67809E" fill-rule="evenodd" d="M26.08 43.272a1.47 1.47 0 0 1-1.08.442 1.47 1.47 0 0 1-1.08-.442L8.598 28.492a8.104 8.104 0 0 1-.675-.64c-.286-.294-.74-.83-1.363-1.608a21.728 21.728 0 0 1-1.67-2.394c-.49-.818-.928-1.808-1.313-2.97C3.192 19.716 3 18.587 3 17.49c0-3.601 1.04-6.417 3.118-8.446C8.198 7.015 11.07 6 14.737 6c1.014 0 2.05.176 3.106.528a12.57 12.57 0 0 1 2.946 1.424c.909.597 1.69 1.158 2.345 1.682.655.524 1.277 1.08 1.866 1.67.59-.59 1.211-1.146 1.866-1.67a31.418 31.418 0 0 1 2.345-1.682 12.57 12.57 0 0 1 2.946-1.424A9.787 9.787 0 0 1 35.263 6c3.667 0 6.54 1.015 8.619 3.045C45.96 11.075 47 13.89 47 17.49c0 3.618-1.874 7.3-5.623 11.05L26.08 43.271z"/>
</svg>
