<svg xmlns="http://www.w3.org/2000/svg" width="14" height="14" viewBox="0 0 14 14">
    <path fill="#FFF" fill-rule="evenodd" d="M2.563 10.438c.291.291.437.645.437 1.062 0 .417-.146.77-.438 1.063A1.447 1.447 0 0 1 1.5 13c-.417 0-.77-.146-1.063-.438A1.447 1.447 0 0 1 0 11.5c0-.417.146-.77.438-1.063A1.447 1.447 0 0 1 1.5 10c.417 0 .77.146 1.063.438zm0-4C2.853 6.729 3 7.082 3 7.5c0 .417-.146.77-.438 1.063A1.447 1.447 0 0 1 1.5 9c-.417 0-.77-.146-1.063-.438A1.447 1.447 0 0 1 0 7.5c0-.417.146-.77.438-1.063A1.447 1.447 0 0 1 1.5 6c.417 0 .77.146 1.063.438zM14 10.75v1.5a.24.24 0 0 1-.074.176.24.24 0 0 1-.176.074h-9.5a.24.24 0 0 1-.176-.074A.24.24 0 0 1 4 12.25v-1.5a.24.24 0 0 1 .074-.176.24.24 0 0 1 .176-.074h9.5a.24.24 0 0 1 .176.074.24.24 0 0 1 .074.176zM2.562 2.437C2.854 2.73 3 3.083 3 3.5c0 .417-.146.77-.438 1.063A1.447 1.447 0 0 1 1.5 5c-.417 0-.77-.146-1.063-.438A1.447 1.447 0 0 1 0 3.5c0-.417.146-.77.438-1.063A1.447 1.447 0 0 1 1.5 2c.417 0 .77.146 1.063.438zM14 6.75v1.5a.24.24 0 0 1-.074.176.24.24 0 0 1-.176.074h-9.5a.24.24 0 0 1-.176-.074A.24.24 0 0 1 4 8.25v-1.5a.24.24 0 0 1 .074-.176.24.24 0 0 1 .176-.074h9.5a.24.24 0 0 1 .176.074.24.24 0 0 1 .074.176zm0-4v1.5a.24.24 0 0 1-.074.176.24.24 0 0 1-.176.074h-9.5a.24.24 0 0 1-.176-.074A.24.24 0 0 1 4 4.25v-1.5a.24.24 0 0 1 .074-.176.24.24 0 0 1 .176-.074h9.5a.24.24 0 0 1 .176.074.24.24 0 0 1 .074.176z"/>
</svg>
